<svg id="Layer_1" data-name="Layer 1" xmlns="http://www.w3.org/2000/svg" viewBox="0 0 166.89 18.81"><defs><style>.cls-1{fill:#4d4d4d;}</style></defs><title>logo-hor-gray</title><path id="Logo_Small" data-name="Logo Small" class="cls-1" d="M61.9,0.15V18.58H57.64V11H50.3v7.55H46V0.15h4.3V7.29h7.34V0.15H61.9Zm8.35,14.69V10.92h7.27V7.47H70.25V3.89h8.46V0.15H66V18.58H78.94V14.84H70.25ZM44,0.15H28.5V3.89h5.63V18.58h4.26V3.89H44V0.15ZM106.7,2q-0.62-.36-1.36-0.72a12.92,12.92,0,0,0-1.59-.65A14.41,14.41,0,0,0,102,.18,9.93,9.93,0,0,0,100.08,0a8.59,8.59,0,0,0-2.6.39,6.42,6.42,0,0,0-2.16,1.15,5.52,5.52,0,0,0-1.47,1.87A5.76,5.76,0,0,0,93.3,6a5,5,0,0,0,.3,1.81,3.8,3.8,0,0,0,.91,1.37,5.77,5.77,0,0,0,1.54,1,15.25,15.25,0,0,0,2.2.84L100,11.56a10.11,10.11,0,0,1,1.41.5,3.18,3.18,0,0,1,.93.61,1.16,1.16,0,0,1,.34.85q0,1.37-2.25,1.37a7.87,7.87,0,0,1-2.1-.28A14.53,14.53,0,0,1,96.47,14a10.08,10.08,0,0,1-1.41-.72,3.57,3.57,0,0,1-.67-0.49l-1.86,3.7a10.87,10.87,0,0,0,1.75,1,16.52,16.52,0,0,0,2,.71,15.08,15.08,0,0,0,2.07.45,14.34,14.34,0,0,0,2.07.16,11,11,0,0,0,2.56-.3,6.48,6.48,0,0,0,2.2-1,4.91,4.91,0,0,0,1.54-1.73,5.44,5.44,0,0,0,.58-2.63,5.34,5.34,0,0,0-.4-2.17,4.31,4.31,0,0,0-1.14-1.54A6.43,6.43,0,0,0,104,8.38a22,22,0,0,0-2.38-.79L99.9,7.12a6.62,6.62,0,0,1-1.2-.45A2.16,2.16,0,0,1,98,6.11a1.21,1.21,0,0,1-.25-0.78q0-1.53,2.28-1.53a6.09,6.09,0,0,1,1.65.23,11.35,11.35,0,0,1,1.53.54,10.44,10.44,0,0,1,1.16.59,2.62,2.62,0,0,1,.54.39Zm16-1.87V7.29h-7.34V0.15H111.1V18.58h4.26V11h7.34v7.55H127V0.15H122.7v0ZM140,18.7a8.7,8.7,0,0,0,3.69-.78,9.34,9.34,0,0,0,4.82-5,9.22,9.22,0,0,0,.69-3.51A9.5,9.5,0,0,0,148.5,6a9.63,9.63,0,0,0-1.85-3A9.13,9.13,0,0,0,143.77.81,8.58,8.58,0,0,0,140,0a8.83,8.83,0,0,0-3.69.77,9.32,9.32,0,0,0-5.54,8.51,9.48,9.48,0,0,0,.66,3.49,9.65,9.65,0,0,0,1.86,3,9.21,9.21,0,0,0,2.89,2.12,8.58,8.58,0,0,0,3.74.81m-4.81-9.36a7.09,7.09,0,0,1,.3-2,5.32,5.32,0,0,1,.91-1.78,4.74,4.74,0,0,1,1.51-1.26A4.42,4.42,0,0,1,140,3.8a4.52,4.52,0,0,1,2.07.45,4.66,4.66,0,0,1,1.52,1.22,5.25,5.25,0,0,1,.94,1.77,6.9,6.9,0,0,1,.31,2.07,7.11,7.11,0,0,1-.3,2,5.64,5.64,0,0,1-.9,1.79,4.63,4.63,0,0,1-1.51,1.29,4.4,4.4,0,0,1-2.13.49,4.48,4.48,0,0,1-2.08-.47,4.54,4.54,0,0,1-1.52-1.25,5.53,5.53,0,0,1-.92-1.78,6.91,6.91,0,0,1-.31-2.07m22.12,9.21V12.63H161a5.53,5.53,0,0,0,2.41-.52,5.62,5.62,0,0,0,1.86-1.4,6.67,6.67,0,0,0,1.19-2,6.47,6.47,0,0,0,.43-2.34,6,6,0,0,0-.45-2.26,6.82,6.82,0,0,0-1.25-2A6.21,6.21,0,0,0,163.29.7a5.4,5.4,0,0,0-2.43-.55H153V18.58h4.26Zm0-14.69h3.32a2,2,0,0,1,.73.14,1.74,1.74,0,0,1,.65.45,2.29,2.29,0,0,1,.45.78,3.29,3.29,0,0,1,.17,1.12A2.87,2.87,0,0,1,162,8.27a1.64,1.64,0,0,1-1.3.65h-3.48v-5ZM10.05,3.68L17.1,8v7.71H3V8l7.05-4.34m0-3.52L0,6.34V18.73H20.1V6.34L10.05,0.15h0Z" transform="translate(0 0)"/></svg>