<svg id="Layer_1" data-name="Layer 1" xmlns="http://www.w3.org/2000/svg" viewBox="0 0 479.02 472.86"><title>logo-stacked-black</title><path id="Shop_Logo" data-name="Shop Logo" d="M115.58,366.51v63.77H100.85V404.14H75.43v26.13H60.7V366.51H75.43v24.7h25.42v-24.7h14.73Zm28.9,50.83V403.78h25.15v-12H144.48V379.44h29.28V366.51h-44v63.77h44.82V417.34h-30.1ZM53.62,366.51H0v12.93H19.49v50.83H34.22V379.44h19.4V366.51Zm217,6.46q-2.15-1.25-4.7-2.51a44.71,44.71,0,0,0-5.51-2.24,49.88,49.88,0,0,0-6.18-1.61,34.35,34.35,0,0,0-6.54-.63,29.73,29.73,0,0,0-9,1.34,22.21,22.21,0,0,0-7.47,4,19.12,19.12,0,0,0-5.1,6.49,20,20,0,0,0-1.88,8.86,17.46,17.46,0,0,0,1,6.26,13.16,13.16,0,0,0,3.13,4.75,20,20,0,0,0,5.33,3.63,52.79,52.79,0,0,0,7.61,2.91q3.31,1,6.13,1.79a35,35,0,0,1,4.88,1.74,11,11,0,0,1,3.22,2.1,4,4,0,0,1,1.16,3q0,4.75-7.79,4.75a27.23,27.23,0,0,1-7.25-1,50.3,50.3,0,0,1-6.49-2.24,34.87,34.87,0,0,1-4.88-2.51,12.36,12.36,0,0,1-2.33-1.7l-6.45,12.8a37.62,37.62,0,0,0,6,3.31,57.16,57.16,0,0,0,6.76,2.46,52.2,52.2,0,0,0,7.16,1.57,49.63,49.63,0,0,0,7.16.54,38,38,0,0,0,8.86-1,22.44,22.44,0,0,0,7.61-3.31,17,17,0,0,0,5.33-6,18.83,18.83,0,0,0,2-9.09,18.5,18.5,0,0,0-1.39-7.52,14.93,14.93,0,0,0-3.94-5.33,22.25,22.25,0,0,0-6.22-3.67,76.25,76.25,0,0,0-8.24-2.73q-3.31-.9-5.82-1.61a22.91,22.91,0,0,1-4.16-1.57,7.48,7.48,0,0,1-2.51-1.93,4.18,4.18,0,0,1-.85-2.69q0-5.28,7.88-5.28a21.06,21.06,0,0,1,5.73.8,39.28,39.28,0,0,1,5.28,1.88,36.13,36.13,0,0,1,4,2.06,9.07,9.07,0,0,1,1.88,1.34ZM326,366.51v24.7H300.54v-24.7H285.82v63.77h14.73V404.14H326v26.13h14.73V366.51H326Zm59.75,64.29a30.12,30.12,0,0,0,12.78-2.7,32.31,32.31,0,0,0,16.7-17.46,31.9,31.9,0,0,0,2.39-12.15,32.89,32.89,0,0,0-2.25-11.88A33.32,33.32,0,0,0,409,376.17a31.59,31.59,0,0,0-10-7.38A29.71,29.71,0,0,0,386,366a30.56,30.56,0,0,0-12.78,2.66A32.7,32.7,0,0,0,354,398.21a32.79,32.79,0,0,0,2.29,12.06,33.4,33.4,0,0,0,6.44,10.4,31.88,31.88,0,0,0,10,7.34,29.7,29.7,0,0,0,13,2.79m-16.65-32.4a24.54,24.54,0,0,1,1-7.07,18.42,18.42,0,0,1,3.15-6.17,16.39,16.39,0,0,1,5.22-4.36,15.31,15.31,0,0,1,7.34-1.67A15.63,15.63,0,0,1,393,380.7a16.13,16.13,0,0,1,5.27,4.23,18.17,18.17,0,0,1,3.24,6.12,23.89,23.89,0,0,1,1.08,7.15,24.61,24.61,0,0,1-1,7.07,19.51,19.51,0,0,1-3.11,6.21,16,16,0,0,1-5.22,4.46,15.24,15.24,0,0,1-7.38,1.71,15.5,15.5,0,0,1-7.2-1.62,15.73,15.73,0,0,1-5.26-4.32,19.12,19.12,0,0,1-3.2-6.17,23.92,23.92,0,0,1-1.08-7.16m76.57,31.89V409.71h12.93a19.15,19.15,0,0,0,8.35-1.8,19.46,19.46,0,0,0,6.42-4.85,23.08,23.08,0,0,0,4.13-6.92,22.41,22.41,0,0,0,1.48-8.08,20.6,20.6,0,0,0-1.57-7.81,23.6,23.6,0,0,0-4.31-6.92,21.48,21.48,0,0,0-6.56-4.94,18.68,18.68,0,0,0-8.39-1.89H430.9v63.77h14.81Zm0-50.84h11.5a6.84,6.84,0,0,1,2.51.5A6,6,0,0,1,462,381.5a7.92,7.92,0,0,1,1.57,2.69,11.4,11.4,0,0,1,.58,3.86q0,4.31-1.89,6.56a5.69,5.69,0,0,1-4.49,2.25h-12V379.44h0Zm-320.5,79.09h-1.3l5.26,14.14h1.15l5.26-14.14h-1.31l-4.45,12.39-0.09.3-0.08-.3Zm24.43,10.66a2.31,2.31,0,0,1-.26,1.09,2.42,2.42,0,0,1-.74.84,3.59,3.59,0,0,1-1.16.54,5.51,5.51,0,0,1-1.5.19,6.39,6.39,0,0,1-1.46-.17,4.11,4.11,0,0,1-1.31-.55,3,3,0,0,1-1-1,2.89,2.89,0,0,1-.37-1.51h-1.19a4,4,0,0,0,.22,1.36,3.77,3.77,0,0,0,.59,1.08,3.82,3.82,0,0,0,.88.81,5.29,5.29,0,0,0,1.1.56,6.71,6.71,0,0,0,1.22.32,7.62,7.62,0,0,0,1.27.11,7.15,7.15,0,0,0,1.94-.25,4.77,4.77,0,0,0,1.54-.73,3.44,3.44,0,0,0,1-1.16,3.24,3.24,0,0,0,.37-1.55,3.48,3.48,0,0,0-.31-1.51,3.4,3.4,0,0,0-.91-1.15,5.87,5.87,0,0,0-1.48-.87,16.46,16.46,0,0,0-2-.68,12.63,12.63,0,0,1-1.8-.6,5,5,0,0,1-1.17-.68,2.17,2.17,0,0,1-.64-0.79,2.27,2.27,0,0,1,.67-2.77,3.33,3.33,0,0,1,1.11-.56,5.12,5.12,0,0,1,1.54-.21,4.59,4.59,0,0,1,1.55.24,3.32,3.32,0,0,1,1.15.67,2.83,2.83,0,0,1,.71,1,3.3,3.3,0,0,1,.24,1.28h1.2a3.86,3.86,0,0,0-1.34-3,4.61,4.61,0,0,0-1.53-.9,5.79,5.79,0,0,0-2-.33,6.48,6.48,0,0,0-1.91.27,4.74,4.74,0,0,0-1.51.75,3.44,3.44,0,0,0-1,1.15A3.16,3.16,0,0,0,141,462a3.1,3.1,0,0,0,.33,1.46,3.44,3.44,0,0,0,.92,1.1,6,6,0,0,0,1.45.83,17.07,17.07,0,0,0,1.92.65,16.19,16.19,0,0,1,1.84.62,4.79,4.79,0,0,1,1.19.68,2.18,2.18,0,0,1,.64.83,2.66,2.66,0,0,1,.19,1M162,466.86a6.86,6.86,0,0,0,2.06-.28,4,4,0,0,0,1.49-.82,3.42,3.42,0,0,0,.9-1.31,4.72,4.72,0,0,0,.31-1.75,4.62,4.62,0,0,0-.31-1.71,3.61,3.61,0,0,0-.91-1.34,4.24,4.24,0,0,0-1.49-.87,6.26,6.26,0,0,0-2.05-.31h-4.82v14.14h1.2v-5.76H162Zm-3.62-7.36H162a4.61,4.61,0,0,1,1.62.26,3,3,0,0,1,1.11.7,2.78,2.78,0,0,1,.63,1,3.76,3.76,0,0,1,.2,1.24,3.66,3.66,0,0,1-.2,1.23,2.62,2.62,0,0,1-.63,1,2.92,2.92,0,0,1-1.11.66,4.94,4.94,0,0,1-1.62.24h-3.62V459.5Zm29.71,1.5H187v4.53h-4.21v1.09H187v4.68h1.18v-4.68h4.3v-1.09h-4.3V461h0Zm21.15-2.43h-1.2v14.14h1.2V458.57Zm18.34,0h-1.19v12.11l-8.14-12.11h-1.2v14.14h1.2v-12.1l8.13,12.1h1.2V458.57Zm18.1,0h-1.19v12.11l-8.14-12.11h-1.2v14.14h1.2v-12.1l8.13,12.1h1.2V458.57Zm18,6.32a8.73,8.73,0,0,0-.39-2.69,5.93,5.93,0,0,0-1.11-2,4.91,4.91,0,0,0-1.74-1.31,5.45,5.45,0,0,0-2.27-.46,5.39,5.39,0,0,0-2.26.46,4.87,4.87,0,0,0-1.73,1.31,6.13,6.13,0,0,0-1.12,2,8.52,8.52,0,0,0-.4,2.69v1.52a8.48,8.48,0,0,0,.4,2.69,6,6,0,0,0,1.13,2,5,5,0,0,0,1.76,1.3,5.38,5.38,0,0,0,2.26.46,5.45,5.45,0,0,0,2.27-.46,4.88,4.88,0,0,0,1.73-1.31,6,6,0,0,0,1.1-2,8.7,8.7,0,0,0,.39-2.69v-1.52h0Zm-1.2,1.52a8.3,8.3,0,0,1-.29,2.27,5,5,0,0,1-.84,1.72,3.66,3.66,0,0,1-1.35,1.09,4.23,4.23,0,0,1-1.83.38,4.15,4.15,0,0,1-1.8-.38,3.78,3.78,0,0,1-1.36-1.09,5.07,5.07,0,0,1-.86-1.72,8,8,0,0,1-.3-2.27v-1.54a8,8,0,0,1,.3-2.26,5,5,0,0,1,.86-1.71,3.81,3.81,0,0,1,1.36-1.09,4.12,4.12,0,0,1,1.8-.38,4.19,4.19,0,0,1,1.82.38,3.77,3.77,0,0,1,1.36,1.09,5,5,0,0,1,.85,1.71,8.14,8.14,0,0,1,.29,2.26v1.54h0Zm7.78-7.84H269l5.26,14.14h1.15l5.26-14.14H279.4L275,470.92l-0.09.3-0.08-.3Zm24.8,14.14h1.24L291,458.53h-1.1l-5.35,14.14h1.25l1.46-4h6.42ZM290.46,460l2.84,7.7h-5.67Zm20.32-1.46H299.91v1h4.84v13.12H306V459.55h4.85v-1h0Zm7.72,0h-1.2v14.14h1.2V458.53h0Zm18.27,6.32a8.73,8.73,0,0,0-.39-2.69,5.93,5.93,0,0,0-1.11-2,4.91,4.91,0,0,0-1.74-1.31,5.45,5.45,0,0,0-2.27-.46,5.39,5.39,0,0,0-2.26.46,4.87,4.87,0,0,0-1.73,1.31,6.13,6.13,0,0,0-1.12,2,8.52,8.52,0,0,0-.4,2.69v1.52a8.48,8.48,0,0,0,.4,2.69,6,6,0,0,0,1.13,2A5,5,0,0,0,329,472.4a5.38,5.38,0,0,0,2.26.46,5.45,5.45,0,0,0,2.27-.46,4.88,4.88,0,0,0,1.73-1.31,6,6,0,0,0,1.1-2,8.7,8.7,0,0,0,.39-2.69v-1.52Zm-1.2,1.52a8.3,8.3,0,0,1-.29,2.27,5,5,0,0,1-.84,1.72,3.65,3.65,0,0,1-1.35,1.09,4.23,4.23,0,0,1-1.83.38,4.15,4.15,0,0,1-1.8-.38,3.78,3.78,0,0,1-1.36-1.09,5.07,5.07,0,0,1-.86-1.72,8,8,0,0,1-.3-2.27v-1.54a8,8,0,0,1,.3-2.26,5,5,0,0,1,.86-1.71,3.81,3.81,0,0,1,1.36-1.09,4.12,4.12,0,0,1,1.8-.38,4.19,4.19,0,0,1,1.82.38,3.77,3.77,0,0,1,1.36,1.09,5,5,0,0,1,.85,1.71,8.14,8.14,0,0,1,.29,2.26v1.54h0Zm18.71-7.84H353.1v12.11L345,458.53h-1.2v14.14H345v-12.1l8.13,12.1h1.2V458.53h-0.05ZM414.35,108V323.88H63.77V108L239.06,0Zm-24.18,13.51L239.06,28.4,87.95,121.47V299.7H390.17V121.51Z"/></svg>